<?xml version="1.0" standalone="no"?>
<!DOCTYPE svg PUBLIC "-//W3C//DTD SVG 20010904//EN"
 "http://www.w3.org/TR/2001/REC-SVG-20010904/DTD/svg10.dtd">
<svg version="1.0" xmlns="http://www.w3.org/2000/svg"
 width="300.000000pt" height="78.000000pt" viewBox="0 0 300.000000 78.000000"
 preserveAspectRatio="xMidYMid meet">
<metadata>
Created by potrace 1.10, written by Peter Selinger 2001-2011
</metadata>
<g transform="translate(0.000000,78.000000) scale(0.100000,-0.100000)"
fill="#000000" stroke="none">
<path d="M700 602 l-69 -69 -73 10 c-115 14 -372 -3 -396 -27 -10 -11 15 -28
39 -28 13 0 65 5 114 11 84 12 294 6 281 -7 -3 -3 -68 -4 -143 -4 -76 1 -156
-2 -178 -7 l-40 -8 59 -8 c78 -10 290 0 346 17 26 8 45 20 45 28 0 8 27 37 59
63 90 72 102 97 48 97 -16 0 -45 -21 -92 -68z"/>
<path d="M2580 395 l0 -201 35 0 35 0 0 77 c0 43 4 89 10 103 11 30 49 42 79
26 19 -10 21 -19 21 -108 l0 -97 40 -1 40 -1 0 94 c0 110 -16 158 -57 174 -35
13 -90 5 -114 -17 -18 -17 -19 -15 -19 67 l0 85 -35 0 -35 0 0 -201z"/>
<path d="M2172 578 c-39 -39 17 -100 58 -63 25 22 25 37 2 58 -22 20 -43 22
-60 5z"/>
<path d="M162 403 c7 -125 55 -209 143 -256 50 -26 245 -39 245 -16 0 10 -14
14 -43 15 -55 1 -136 37 -175 77 -30 31 -54 97 -35 97 5 0 31 -23 58 -51 49
-50 152 -125 161 -116 2 2 -2 10 -11 17 -9 7 -15 29 -15 54 0 23 -10 61 -22
86 -34 66 -84 95 -199 114 -21 4 -54 18 -74 32 l-38 25 5 -78z m136 -28 c79
-19 106 -35 132 -78 39 -64 21 -63 -54 3 -31 28 -62 50 -68 50 -24 0 -48 -34
-48 -68 0 -29 -2 -32 -14 -23 -16 14 -46 94 -46 124 0 13 5 17 16 13 8 -3 45
-13 82 -21z"/>
<path d="M680 470 c0 -18 -63 -50 -98 -50 -42 0 -121 -20 -128 -32 -4 -5 6
-22 20 -37 21 -22 28 -42 34 -92 l7 -64 42 53 c24 29 51 67 60 83 22 36 33 37
33 2 0 -41 -35 -91 -85 -121 -48 -30 -53 -45 -13 -50 33 -4 91 46 120 102 24
47 38 199 19 210 -6 4 -11 2 -11 -4z m-90 -102 c0 -7 -9 -24 -20 -38 -20 -24
-21 -25 -35 -6 -27 36 -18 48 43 55 6 0 12 -5 12 -11z"/>
<path d="M1090 463 c-8 -3 -23 -12 -32 -21 -16 -14 -18 -13 -18 1 0 13 -9 17
-35 17 l-35 0 0 -133 0 -134 36 1 35 2 2 93 c2 79 5 95 21 107 24 17 58 18 74
2 8 -8 12 -47 12 -108 l0 -95 41 0 41 0 -4 112 c-3 98 -6 115 -24 134 -21 21
-86 34 -114 22z"/>
<path d="M1354 451 c-98 -45 -99 -198 -1 -244 105 -50 217 13 217 121 0 61
-24 100 -73 123 -53 23 -91 24 -143 0z m121 -66 c49 -48 17 -135 -49 -135 -45
0 -71 30 -71 82 0 71 71 103 120 53z"/>
<path d="M2090 463 c-8 -3 -25 -15 -37 -26 l-23 -20 0 21 c0 18 -6 22 -35 22
l-35 0 0 -133 0 -132 40 0 40 0 0 87 c0 78 2 88 22 102 12 9 30 16 40 16 14 0
18 8 18 35 0 35 -3 38 -30 28z"/>
<path d="M2350 452 c-80 -40 -58 -111 44 -145 48 -16 57 -22 54 -41 -4 -30
-50 -34 -76 -6 -14 16 -26 19 -46 14 -14 -3 -26 -12 -26 -18 0 -23 48 -58 88
-63 81 -11 132 21 132 82 0 44 -28 70 -92 85 -51 13 -72 35 -47 51 21 13 46
11 63 -6 17 -17 66 -20 66 -4 0 23 -21 47 -51 58 -44 15 -68 14 -109 -7z"/>
<path d="M1622 350 c4 -127 15 -147 87 -157 34 -5 48 -1 72 16 27 20 29 20 29
3 0 -14 8 -18 35 -18 l35 0 0 133 0 133 -35 0 -35 0 0 -83 c0 -95 -15 -127
-59 -127 -44 0 -51 16 -51 117 l0 93 -41 0 -41 0 4 -110z"/>
<path d="M2166 328 l1 -132 37 -2 36 -1 0 134 0 133 -37 0 -38 0 1 -132z"/>
</g>
</svg>
